<svg xmlns="http://www.w3.org/2000/svg" xmlns:xlink="http://www.w3.org/1999/xlink" viewBox="0 0 6325 2846"><defs><style>.cls-1{isolation:isolate;}.cls-2,.cls-3,.cls-7,.cls-8{mix-blend-mode:screen;}.cls-2{fill:url(#Áåçûìÿííûé_ãðàäèåíò_18);}.cls-3{fill:url(#Áåçûìÿííûé_ãðàäèåíò_558);}.cls-4{fill:#fff;}.cls-4,.cls-6{fill-rule:evenodd;}.cls-5{opacity:0.2;}.cls-6{fill:#625eab;}.cls-7{fill:url(#Áåçûìÿííûé_ãðàäèåíò_223);}.cls-8{fill:url(#Áåçûìÿííûé_ãðàäèåíò_207);}</style><radialGradient id="Áåçûìÿííûé_ãðàäèåíò_18" cx="1793.94" cy="1253.26" r="148.35" gradientTransform="translate(-1113.94 -2416.38) scale(2.39 2.37)" gradientUnits="userSpaceOnUse"><stop offset="0" stop-color="#5d2798"/><stop offset="0.16" stop-color="#5a2694"/><stop offset="0.32" stop-color="#532387"/><stop offset="0.49" stop-color="#461d73"/><stop offset="0.65" stop-color="#351656"/><stop offset="0.82" stop-color="#1e0c31"/><stop offset="0.99" stop-color="#020104"/><stop offset="1"/></radialGradient><radialGradient id="Áåçûìÿííûé_ãðàäèåíò_558" cx="1797.11" cy="1247.57" r="126.56" gradientTransform="translate(-1125.71 -2417.78) scale(2.39 2.37)" gradientUnits="userSpaceOnUse"><stop offset="0" stop-color="#213a9f"/><stop offset="0.16" stop-color="#20399b"/><stop offset="0.31" stop-color="#1e348f"/><stop offset="0.48" stop-color="#192d7a"/><stop offset="0.64" stop-color="#13225e"/><stop offset="0.8" stop-color="#0c1539"/><stop offset="0.96" stop-color="#03040c"/><stop offset="1"/></radialGradient><radialGradient id="Áåçûìÿííûé_ãðàäèåíò_223" cx="1791.6" cy="1247.98" r="216.17" gradientTransform="translate(-1121.17 -2408.74) scale(2.39 2.37)" gradientUnits="userSpaceOnUse"><stop offset="0" stop-color="#2f54bd"/><stop offset="1"/></radialGradient><radialGradient id="Áåçûìÿííûé_ãðàäèåíò_207" cx="1791.6" cy="1247.98" r="147.36" gradientTransform="translate(-1121.17 -2408.74) scale(2.39 2.37)" gradientUnits="userSpaceOnUse"><stop offset="0" stop-color="#2f54bd"/><stop offset="0.13" stop-color="#2b4cac"/><stop offset="0.39" stop-color="#20387f"/><stop offset="0.75" stop-color="#0e1837"/><stop offset="1"/></radialGradient></defs><title>moon</title><g class="cls-1"><g id="Layer_1" data-name="Layer 1"><ellipse class="cls-2" cx="3180.6" cy="558.3" rx="355.13" ry="352.11" transform="translate(536.8 2412.55) rotate(-45)"/><ellipse class="cls-3" cx="3176.42" cy="543.39" rx="302.96" ry="300.39" transform="translate(546.12 2405.22) rotate(-45)"/><path class="cls-4" d="M3406.64,546.28c0,126-102.1,228.05-228,228.05-107.06,0-196.88-73.75-221.44-173.2a228.85,228.85,0,0,1-6.63-54.85,232.25,232.25,0,0,1,1.32-24.74c12.33-114.33,109.14-203.33,226.75-203.33C3304.54,318.21,3406.64,420.31,3406.64,546.28Z"/><g class="cls-5"><path class="cls-6" d="M3121,700.44c2.86,6.13,4.79,11.51,9.67,16.57,5.31,5.51,9.44,6.55,16.31,8.56,4,1.17,4.84,2.57,9.95,2.49,3.34,0,8-.86,11.18-.13,7.23,1.64,11.08,8.05,19.19,8.49,7.71.42,12.66-2.13,19.35-4.17,6.27-1.93,13.59-4.66,19.41-6.86,6.36-2.41,12.05-4.11,18.64-6.22,7.06-2.26,10.69-7,19.55-4.5.56,3.28-.25,8.49,3.79,10.14,2.77,1.13,7.39-1.8,10.36-2.94,7.74-3,14.74-4.61,22.09-7.69,3.56-1.49,6.14-1.39,9.75-4.07s7.18-4.5,10.78-6.9c6.67-4.46,13.23-9.3,19.87-13.82,12.76-8.68,21-20.57,28.73-33.16,4.08-6.62,6.42-13.91,9-21.47,3.15-9.31,2.09-12-4.14-19.55-11.17,4.66-15.61-2.26-12.5-14.22,2.71-10.46,3.88-24.36,1.53-35.29-.42-2-1.9-3.32-2.22-6.08-.36-3,.26-5.29-.54-8.35-1.31-5-2.19-8.41-2.15-13.81s.75-11.35-.61-16.58c-.86-3.29-2-4.71-2.22-8.29s.46-6.88-.56-10.42c-2.66-9.22-11.09-11.81-18.71-14.44-5.2-1.79-7.8-3.56-11.11,0-3.55,3.76-2.66,8.94-2.69,13.84-.07,9.23,5.89,17.37,11,24.87,2.29,3.33,6.31,6.55,5.73,11.13-.32,2.53-3.44,2.9-3.25,5.44.24,3.07,3.55,4,5.19,6.15,13.18,17.22-11.65,32.37-23.49,41.51-6.75,5.21-16.89,7.86-19.47,16.51-2.76,9.25,3.61,17,7,24.87,3.51,8.25,6.56,22.76,1.44,30.51-2.19,3.31-6.44,5.27-9.72,6.85-4.86,2.33-6.69,5.24-11,8.36-7,5.07-15.61,6.75-24.25,6.2-5.49-.34-9.48-2.57-13.8-5.58-3.32-2.33-7.77-6.55-11.68-7.67-2.81-.8-4.9-.2-7.74-.55-3.9-.48-4.65-2.09-8.06-3-5.88-1.52-10.05,2.64-14.66,5-3.91,2-8.53,4.82-13.27,3.59-4.57-1.19-9.88-4.14-14.28-5.05-10.54-2.18-27.6-2.94-36,4.23-4.26,3.61-5.75,8.67-9.56,12.48C3129.13,691,3122.1,692,3121,700.44Z"/><path class="cls-6" d="M3330.91,460.11c-10.11.2-19.42-7.42-27.69-13.13-6.79-4.7-13.91-12.08-17.18-19.35-1-2.19-1.32-4-2.09-6.2-.17-.48-2.63-7.05-2.63-7.25.1-3.84,3.23-8.43,6.1-11.38,8.23-8.5,20.82-2.39,29.08,2.74a135.41,135.41,0,0,1,21.94,16.58c3.18,3,7.54,5.78,9.8,9.6,3,5,2.11,11.2,2,17.33-.13,9.34,12.1,20.1-2.7,22.16-5.81.81-23.61-4.09-24.93-11.1Z"/><path class="cls-6" d="M3148.59,755.7c-2.51,2.79-5.48.86-8.32,0a25,25,0,0,0-8.26-1.35c-6.06,0-11.53.05-17.26-1.38-5.46-1.36-10.67-2.15-15.88-3.45-2.08-.52-4.07-1.69-6.17-2.13-1.29-.27-2.76.18-4.08-.06-.62-.11-.67-.86-1.11-1-1.07-.23-2.08-.08-3.14-.27a132.91,132.91,0,0,1-14.82-3.87c-2.21-.67-4.22-.75-6.26-2s-5-2.73-6.94-4.14c-7.45-5.5-15.61-10.14-22.4-17-6.41-6.43-13-12.31-19.72-18.3-1.55-1.38-2.81-3.22-4.44-4.5-1.8-1.42-3.5-2.07-5.19-3.79a83.38,83.38,0,0,1-9-11.43c-5.45-7.87-12.46-14.31-16.74-22.93-2.07-4.17-3.94-8.22-6.39-12.2a59.29,59.29,0,0,1-4.18-8.36c-.84-2.08-2.53-4.53-3.11-6.51-.86-3-.84-5.82-1.65-8.7-.36-1.26-1.19-2.11-1.49-3.35-.38-1.55.45-3.39.12-5-.3-1.39-1.18-2-1.5-3.33-.38-1.55.45-3.39.12-5-.3-1.4-1.19-2-1.5-3.33-.44-1.77.57-3.9.14-5.67-.32-1.32-1.21-1.94-1.51-3.33a25.81,25.81,0,0,1,0-4.89c0-3.56-1.23-6.29-1.41-9.67-.17-3.09-.66-7.41,0-10.41.3-1.39,1.19-2,1.51-3.33.43-1.81-.44-3.64.16-5.48,3.73-1,2.55,6.93,2.53,8.86,0,3.57,1.46,5.51,1.38,9-.1,4.28,1.69,4.87,4.21,8,1.09,1.35,3.61,4,4.15,5.76.36,1.18.32,3.07.62,4.22a13.26,13.26,0,0,1,.68,4.15c-.06,3.37-.24,5.07,2.4,7.24a20.58,20.58,0,0,0,7.2,3.88c3.14.7,5.88.66,9.11,1.25,1.45.27,2,1.19,3.33,1.51,1.75.41,3.61-.68,5.32.2s3.66,4,4.1,5.56a10,10,0,0,1-1.06,8c-.48.92-.85,1.87-1.39,2.76s-1.92,2-2.48,3c-2.61,4.78,1.15,12.56,2.18,16.6.4,1.57,2.77,6.35,1.47,7.78s-9.13.2-10.62-.66c-.85,1.74.78,5.1,1.3,7a31.9,31.9,0,0,0,2.94,7.39,30.44,30.44,0,0,0,11.26,10.17c2.81,1.48,4.52,2.26,5-1.51.23-1.71-.27-2.65.6-4.23.62-1.12,1.76-1.26,2.19-2.64s-.48-3.42-.11-5c.27-1.12,1.08-1.84,1.31-2.83.77-3.26-.5-6.93.05-10.24,1.11-6.64,6-9.63,11.81-11.05a102.46,102.46,0,0,0,17.19-5.52c6.22-2.76,12.94-3.76,19.41-1.72,5.3,1.66,9.5,4.85,14.33,7.41a54.4,54.4,0,0,0,6.43,2.56c2.53,1,5.16,1.94,7.69,2.67,4.56,1.31,9.82,2.06,14,4.58,4,2.36,9.31,5.49,12.12,9.32,2.68,3.66,5.26,11.22,3.31,15.82-1.47,3.48-6.72,6.51-9.22,9.43-4.25,5-3.11,8.29,0,13.43,1.14,1.88,3.14,4.34,3.68,6.37.72,2.7.28,6.76.13,9.56a12.11,12.11,0,0,1-2.39,6.59c-1.36,2.05-4.52,3.34-5.62,5.41-1,1.88-.07,2.83.71,4.25.23.4.91.54,1.13.95.52,1,.19,1.9.6,2.85,1.37,3.17,4.1,2.68,6.94,3.42a12.78,12.78,0,0,0,8.33-.65c1.68-.65,2.22-1.17,4.07-1.45,2-.31,3,.79,4.48,1.1,3.4.7,5.34-1.63,8.73-1.81,2.7-.15,4.39,1,6.5,3.16,1.75,1.75,4.21,4.67,3.91,7.29S3150.49,753.21,3148.59,755.7Z"/><path class="cls-6" d="M3122.34,652.1a22.31,22.31,0,0,1,2.42-1.18,34.47,34.47,0,0,0,7.26,6.7c4,2.53,6,.93,6.95-3.39.47-2.22-.73-3.59-1.13-5.19-.46-1.84,0-3.8-2-4.95-2.69-1.59-10.55-.76-9.39,3.87Z"/><path class="cls-6" d="M2989.74,473.92a2.29,2.29,0,0,1-2.55,1.27,24.73,24.73,0,0,1-.09-8.75c.24-1.29,1.1-1.92,1.3-3.53.17-1.34,0-2.54.27-3.88.37-1.71,1.78-4.42,2.15-6.14.57-2.68.66-4.12,1.73-6.56,1-2.23,1.54-5.15,2.55-7.69a38.29,38.29,0,0,1,3.28-6.12c2.54-4.2,4.66-8.26,7.25-12.47,4.59-7.45,9.75-14.86,16.68-20.68,2.36-2,5.05-3.48,7.53-5.22.85-.6,1.52-1.56,2.34-2.1s2.11-.78,2.84-1.31c2.16-1.58,8.36-7.86,11.19-6.36-1.95,5.13-5.32,10.27-7.78,15.29-2.84,5.81-8.17,5.56-12.42,9.68-6.65,6.45,4.43,9.15,8.27,11.67s3.83,6,3.81,10.08a32.06,32.06,0,0,0,1.38,10.36,40.86,40.86,0,0,1,1.46,4.83c0,.95-.11,1.89-.16,2.84a2,2,0,0,0,1.16,1.61c.85,3.95-.78,6.28-2.12,9.67s-2.12,6.5-4.83,9-5.69,1.68-9.32,1.73c-2.33,0-3.4-.55-5.52-1.07-1.39-.34-3.4-1.17-4.46-1.38-1.65-.32-3.26-.27-4.91-.61s-1.83-1.37-4.14-.76-4.66,3.34-7.15,3.9c-3.46.78-7.43-.85-10.88.16C2988.52,471.77,2988.44,472.16,2989.74,473.92Z"/></g><ellipse class="cls-7" cx="3167.77" cy="553.39" rx="517.48" ry="513.09" transform="translate(536.51 2402.04) rotate(-45)"/><ellipse class="cls-8" cx="3167.77" cy="553.39" rx="352.77" ry="349.78" transform="translate(536.51 2402.04) rotate(-45)"/></g></g></svg>