<svg xmlns="http://www.w3.org/2000/svg" xmlns:xlink="http://www.w3.org/1999/xlink" viewBox="0 0 600 270"><defs><style>.cls-1{isolation:isolate;}.cls-2{fill:url(#linear-gradient);}.cls-3{fill:url(#linear-gradient-2);}.cls-4{fill:url(#linear-gradient-3);}.cls-5{fill:url(#linear-gradient-4);}.cls-6,.cls-7{fill:#9b8bd6;mix-blend-mode:multiply;}.cls-6{opacity:0.5;}.cls-7{opacity:0.3;}</style><linearGradient id="linear-gradient" x1="323.37" y1="50.71" x2="374.49" y2="259.78" gradientTransform="matrix(1.12, -0.01, -0.01, 0.92, -59.9, 17.66)" gradientUnits="userSpaceOnUse"><stop offset="0" stop-color="#6b9ee3"/><stop offset="1" stop-color="#867ea8"/></linearGradient><linearGradient id="linear-gradient-2" x1="289.44" y1="82.56" x2="340.55" y2="291.63" gradientTransform="matrix(-0.98, 0.92, 0.74, 0.77, 421.49, -244.57)" xlink:href="#linear-gradient"/><linearGradient id="linear-gradient-3" x1="313.01" y1="241.61" x2="313.01" y2="-12.37" gradientTransform="matrix(1.72, -0.01, -0.01, 1.33, -169.33, -43.82)" gradientUnits="userSpaceOnUse"><stop offset="0" stop-color="#628ccc"/><stop offset="1" stop-color="#6253a1"/></linearGradient><linearGradient id="linear-gradient-4" x1="361.79" y1="88.57" x2="254.67" y2="207.13" gradientUnits="userSpaceOnUse"><stop offset="0" stop-color="#9abff1"/><stop offset="1" stop-color="#4e4fbd"/></linearGradient></defs><title>mountain new</title><g class="cls-1"><g id="Ñëîé_1" data-name="Ñëîé 1"><polygon class="cls-2" points="280.97 166.17 293.17 155.25 295.29 155.17 308.32 154.24 329.3 129.93 335.84 132.74 389.62 181.95 303.23 198.31 280.97 166.17"/><polygon class="cls-3" points="300.07 154.78 280.78 155.6 278.88 157.27 266.8 167.22 229.23 163.95 225.78 171.7 218.13 257.49 306.26 200.23 300.07 154.78"/><path class="cls-4" d="M270.12,195l26.13-14.81,10.43,1.35,11.56-1.21,26-12.44,68.32-46.73,77.52,127s-249.79,5.21-245.95,4.44S270.12,195,270.12,195Z"/><polygon class="cls-5" points="377 220.78 201.96 218.85 201.99 206.71 160.11 186.28 202.22 116.89 225.31 90.6 225.68 90.17 225.84 90 230.82 93.56 243.32 121.83 243.44 121.79 248.73 120.18 249.12 120.06 251.06 123.76 253.21 123.76 274.71 163.59 285.13 175.48 287.06 175.48 325.52 157.97 375.73 209.37 377 220.78"/><path class="cls-6" d="M249.41,167.36l-1.08-6.66,3.68,2.68-7.36-32.85,1.87-1.35L249.7,132l-2-11.84,0-.14-5.14,1.75-.1,0L223.29,148.1l-2.7-23.49,1.72-1.44,1.22-2.44,1.67,3.88-1.67-14.31,1.67-2.49,2.3,1.79-2.29-19.43-.37.43L202.3,116.89l-17.73,29.37,17.55,39.52-.05,20.93,38.66-17.78,2.45,1.49L239,149.36l1.71-.44Zm-33.18-9.57-11.17,15.32.92-46.46,2-.73,2.26,7.39,6.47-5.44C216.57,135.69,216.31,150.46,216.23,157.79Z"/><polygon class="cls-7" points="262.49 215.27 262.49 213.58 256.37 213.58 248.82 210.2 250.98 207.42 251.03 203.99 254.8 171.38 260.85 192.82 264.69 191.31 270.83 184.11 272.62 182.22 269.21 174.71 274.5 180.25 276.41 178.24 285.14 175.46 291.03 172.68 322.09 158.01 323.71 180.23 321.31 180.23 321.89 185.45 318.61 190.72 325.28 206.82 316.75 213.33 360.71 218.75 368.46 222.03 250.98 221.44 262.49 215.27"/><polygon class="cls-7" points="321.31 180.23 277.44 191.31 273.72 190.72 321.89 175.56 323.31 174.69 323.71 180.23 321.31 180.23"/><polygon class="cls-7" points="317.78 191.86 288.42 206.72 325.28 206.82 317.78 191.86"/><polygon class="cls-7" points="315.23 214.08 307.19 221.34 258.72 222.13 267.05 216.22 305.82 213.98 305.82 212.89 319.54 210.55 315.23 214.08"/><polygon class="cls-7" points="237.21 131.72 246.52 129.18 249.37 131.72 248.82 127.59 236.16 130.45 223.63 147.67 210.89 166.36 205.99 180.23 197.95 173.12 194.17 197.68 212.31 189.38 240.73 188.93 243.18 190.17 242.65 186.94 212.5 182.96 214.07 175.51 218.78 172.72 220.2 169.2 215 170.74 223.24 151.4 239.02 149.51 240.73 148.92 249.22 166.96 248.33 160.7 246.71 160.05 241.42 145.98 229.75 145.09 237.21 131.72"/><polygon class="cls-7" points="225.2 107.81 210.4 110.3 227.04 106.21 227.5 109.6 225.2 107.81"/><polygon class="cls-7" points="223.53 120.73 200.45 124.16 200.45 121.78 223.53 115.02 225.15 124.16 223.53 120.73"/><polygon class="cls-7" points="216.31 151.58 218.78 125.75 209.12 127.19 216.72 127.59 216.31 151.58"/><polygon class="cls-6" points="290.82 176.9 269.8 189.82 273.72 190.72 285.33 193.7 277.44 208.16 262.49 213.33 260.82 213.58 256.37 213.58 248.82 210.2 250.98 207.42 259.29 197.65 254.7 170.74 256.42 168.7 265.31 190.59 270.83 184.11 272.62 182.22 268.96 174.12 269.99 174.71 264.94 166.46 275.06 179.66 276.41 178.24 285.14 175.46 291.03 172.68 292.64 172.72 290.82 176.9"/></g></g></svg>