<svg id="Ñëîé_1" data-name="Ñëîé 1" xmlns="http://www.w3.org/2000/svg" viewBox="0 0 600 270"><defs><style>.cls-1{fill:#68b7e7;}.cls-1,.cls-2,.cls-3,.cls-5,.cls-7{fill-rule:evenodd;}.cls-2{fill:#406fbb;}.cls-3,.cls-4{fill:#365cbb;}.cls-5,.cls-6{fill:#90ffff;}.cls-7{fill:#b7ffff;}</style></defs><title>stars</title><path class="cls-1" d="M312.54,16.59a.47.47,0,1,1-.47-.47A.47.47,0,0,1,312.54,16.59Z"/><path class="cls-1" d="M303.5,66.69a.47.47,0,0,1-.47.46.47.47,0,0,1,0-.93A.47.47,0,0,1,303.5,66.69Z"/><path class="cls-1" d="M370.25,91.57a.47.47,0,1,1-.47-.47A.47.47,0,0,1,370.25,91.57Z"/><path class="cls-1" d="M383.42,148.65a.46.46,0,0,1-.46.47.47.47,0,0,1,0-.94A.46.46,0,0,1,383.42,148.65Z"/><path class="cls-2" d="M340.92,72.5a.46.46,0,0,1-.46.47.47.47,0,0,1-.47-.47.46.46,0,0,1,.47-.46A.45.45,0,0,1,340.92,72.5Z"/><path class="cls-2" d="M318.91,61.88a.47.47,0,1,1-.47-.46A.47.47,0,0,1,318.91,61.88Z"/><path class="cls-3" d="M291.56,40.6a.47.47,0,1,1-.47-.46A.47.47,0,0,1,291.56,40.6Z"/><circle class="cls-4" cx="262.93" cy="5.77" r="0.47"/><path class="cls-3" d="M348,72a.47.47,0,1,1-.47-.47A.47.47,0,0,1,348,72Z"/><path class="cls-5" d="M258.16,180.37a.47.47,0,1,1-.47-.47A.47.47,0,0,1,258.16,180.37Z"/><path class="cls-2" d="M364.57,57.91a.47.47,0,0,1-.94,0,.47.47,0,1,1,.94,0Z"/><path class="cls-2" d="M245.63,35.58a.47.47,0,1,1-.47-.47A.47.47,0,0,1,245.63,35.58Z"/><path class="cls-2" d="M270.22,60a.47.47,0,1,1-.46-.47A.47.47,0,0,1,270.22,60Z"/><path class="cls-2" d="M313.07,186.15a.47.47,0,1,1-.47-.47A.47.47,0,0,1,313.07,186.15Z"/><path class="cls-2" d="M276.32,2.5a.47.47,0,0,1-.93,0,.47.47,0,1,1,.93,0Z"/><path class="cls-2" d="M366.82,121.22a.47.47,0,1,1-.46-.46A.47.47,0,0,1,366.82,121.22Z"/><path class="cls-2" d="M218.61,57a.47.47,0,1,1-.47-.47A.47.47,0,0,1,218.61,57Z"/><path class="cls-2" d="M328.4,100.66a.47.47,0,1,1-.47-.46A.47.47,0,0,1,328.4,100.66Z"/><path class="cls-2" d="M292,23.62a.47.47,0,1,1-.93,0,.47.47,0,0,1,.93,0Z"/><path class="cls-2" d="M400.9,134.72a.47.47,0,0,1-.47.46.47.47,0,0,1,0-.93A.47.47,0,0,1,400.9,134.72Z"/><path class="cls-1" d="M374,25.49a.47.47,0,1,1-.47-.47A.47.47,0,0,1,374,25.49Z"/><path class="cls-2" d="M396.82,29.36a.47.47,0,1,1-.46-.47A.47.47,0,0,1,396.82,29.36Z"/><path class="cls-2" d="M343.2,150.08a.46.46,0,0,1-.46.47.47.47,0,1,1,0-.93A.46.46,0,0,1,343.2,150.08Z"/><path class="cls-5" d="M256,43.29a.47.47,0,0,1-.94,0,.47.47,0,0,1,.94,0Z"/><circle class="cls-6" cx="298.99" cy="48.91" r="0.47"/><path class="cls-5" d="M216.21,25.47a.47.47,0,0,1-.47.47.47.47,0,0,1,0-.93A.47.47,0,0,1,216.21,25.47Z"/><path class="cls-7" d="M327.38,116.55a.47.47,0,0,1-.93,0,.47.47,0,1,1,.93,0Z"/><path class="cls-5" d="M308.11,7.23a.47.47,0,1,1-.47-.47A.47.47,0,0,1,308.11,7.23Z"/><path class="cls-5" d="M396.36,70.93a.47.47,0,0,1-.94,0,.47.47,0,1,1,.94,0Z"/><path class="cls-5" d="M301.84,118.08a.47.47,0,0,1-.47.46.47.47,0,0,1,0-.93A.47.47,0,0,1,301.84,118.08Z"/><path class="cls-5" d="M237.56,122.14a.47.47,0,1,1-.47-.47A.47.47,0,0,1,237.56,122.14Z"/><path class="cls-5" d="M364.31,16.57a.47.47,0,1,1-.93,0,.47.47,0,0,1,.93,0Z"/><path class="cls-5" d="M348.51,43.29a.47.47,0,0,1-.94,0,.47.47,0,1,1,.94,0Z"/><path class="cls-5" d="M300.38,43.44a.46.46,0,0,1-.46.47.47.47,0,0,1,0-.94A.46.46,0,0,1,300.38,43.44Z"/><path class="cls-5" d="M315.36,124.68a.47.47,0,0,1-.93,0,.47.47,0,1,1,.93,0Z"/><path class="cls-1" d="M302.31,84.46a.47.47,0,1,1-.47-.46A.47.47,0,0,1,302.31,84.46Z"/><path class="cls-2" d="M273,65.39a.47.47,0,1,1-.47-.46A.47.47,0,0,1,273,65.39Z"/><path class="cls-2" d="M251,54.78a.47.47,0,1,1-.47-.47A.47.47,0,0,1,251,54.78Z"/><path class="cls-3" d="M223.62,33.5a.47.47,0,0,1-.93,0,.47.47,0,1,1,.93,0Z"/><path class="cls-3" d="M203.3,103.71a.47.47,0,0,1-.47.46.47.47,0,0,1,0-.93A.47.47,0,0,1,203.3,103.71Z"/><path class="cls-3" d="M280.1,64.93a.47.47,0,0,1-.93,0,.47.47,0,1,1,.93,0Z"/><path class="cls-2" d="M177.69,28.47a.47.47,0,1,1-.46-.46A.47.47,0,0,1,177.69,28.47Z"/><path class="cls-2" d="M202.29,52.84a.47.47,0,0,1-.47.47.47.47,0,0,1,0-.94A.47.47,0,0,1,202.29,52.84Z"/><path class="cls-2" d="M205.82,118a.47.47,0,1,1-.46-.47A.47.47,0,0,1,205.82,118Z"/><path class="cls-2" d="M150.67,49.9a.47.47,0,0,1-.93,0,.47.47,0,1,1,.93,0Z"/><path class="cls-2" d="M224.08,16.51a.46.46,0,0,1-.46.47.47.47,0,1,1,0-.93A.46.46,0,0,1,224.08,16.51Z"/><path class="cls-5" d="M188,36.18a.47.47,0,1,1-.93,0,.47.47,0,0,1,.93,0Z"/><path class="cls-7" d="M259.44,109.44a.46.46,0,0,1-.46.47.47.47,0,0,1-.47-.47A.46.46,0,0,1,259,109,.45.45,0,0,1,259.44,109.44Z"/><path class="cls-5" d="M233.9,111a.47.47,0,1,1-.47-.47A.47.47,0,0,1,233.9,111Z"/><path class="cls-5" d="M169.62,115a.47.47,0,1,1-.47-.46A.47.47,0,0,1,169.62,115Z"/><path class="cls-5" d="M296.37,9.47a.47.47,0,1,1-.46-.47A.47.47,0,0,1,296.37,9.47Z"/><path class="cls-5" d="M280.57,36.18a.47.47,0,1,1-.93,0,.47.47,0,0,1,.93,0Z"/><path class="cls-5" d="M234,39.61a.47.47,0,1,1-.46-.46A.47.47,0,0,1,234,39.61Z"/><path class="cls-5" d="M247.43,117.57a.47.47,0,1,1-.94,0,.47.47,0,0,1,.94,0Z"/><path class="cls-5" d="M364.21,115.34a.47.47,0,0,1-.47.47.47.47,0,0,1,0-.94A.47.47,0,0,1,364.21,115.34Z"/><path class="cls-2" d="M429.29,56.54a.47.47,0,1,1-.93,0,.47.47,0,0,1,.93,0Z"/><path class="cls-2" d="M390.87,36a.47.47,0,1,1-.47-.47A.47.47,0,0,1,390.87,36Z"/><path class="cls-2" d="M358,69.58a.47.47,0,1,1-.47-.46A.47.47,0,0,1,358,69.58Z"/><path class="cls-2" d="M405.67,85.4a.47.47,0,1,1-.93,0,.47.47,0,0,1,.93,0Z"/><path class="cls-5" d="M426.68,50.66a.47.47,0,0,1-.94,0,.47.47,0,0,1,.94,0Z"/></svg>